<?xml version="1.0" encoding="utf-8"?>
<!-- Generator: Adobe Illustrator 22.1.0, SVG Export Plug-In . SVG Version: 6.00 Build 0)  -->
<svg version="1.1" id="Layer_1" xmlns="http://www.w3.org/2000/svg" xmlns:xlink="http://www.w3.org/1999/xlink" x="0px" y="0px"
	 viewBox="0 0 25 32" style="enable-background:new 0 0 25 32;" xml:space="preserve">
<style type="text/css">
	.st0{fill:#0022E5;}
</style>
<title>ic_home</title>
<desc>Created with Sketch.</desc>
<g id="OPt-2">
	<g id="prog2_pro3_Mobile-Portrait_opt2-Copy-2" transform="translate(-10.000000, -15.000000)">
		<g id="nav">
			<g id="Group-6">
				<g id="ic_home_1_" transform="translate(14.000000, 17.000000)">
					<g id="Group_1_" transform="translate(9.600000, 12.000000) scale(-1, 1) translate(-9.600000, -12.000000) ">
						<path id="Shape_5_" class="st0" d="M0,7.3l1.2,0.9l1.9,1.4c0.2-1.3,1-2.4,2-3L1.5,3.7l1.1-1.5c0.4-0.7,0.3-1.5-0.2-2l-2.7,3.6
							c-0.4,0.8-0.5,1.4-0.5,2C-0.8,6.4-0.5,6.9,0,7.3L0,7.3z"/>
						<path id="Shape_4_" class="st0" d="M11.6,20c-4-2.2-7.7-2.7-8.6-1.3c-0.8,1.2,0.5,3.5,3,5.8l-2.4,4H2c-0.8,0-1.3,0.7-1.3,1.4
							h2.1h2.8l0.8-1.4l1.4-2.3l0.5-0.9C8.1,25,8,24.7,8,24.3c0-1.2,0.9-2.1,2.1-2.1c0.1,0,0.1,0,0.2,0L11.6,20L11.6,20z"/>
						<path id="Shape_3_" class="st0" d="M22.9,6.7c-0.2-1.1-1.1-1.9-2.2-1.9c-0.3,0-0.7,0.1-0.9,0.2c-0.8,0.3-1.4,1.2-1.4,2.1v10.8
							c0,0.8-0.7,1.4-1.4,1.4c-0.5,0-1-0.3-1.2-0.8v-0.1l-1.3-3.3L17,6.7l0,0c0-0.1,0.1-0.2,0.1-0.3C18,3,16.4-0.4,13.3-1.9L7.4,0.3
							C6.7,0.5,6.4,1.4,6.6,2l1.5-0.5c0.5-0.1,1.2,0.2,1.4,0.8c0.2,0.5-0.1,1.2-0.7,1.4L7.3,4.2C7.5,5,8.4,5.3,9.1,5.1l1.6-0.7
							c0.1,0.7-0.2,1.3-0.9,1.5l-3,1.1c-1.3,0.5-2.2,1.9-2.3,3.4c0,0.1,0,0.1,0,0.2v0.1l0,0h-4.8V8.9c0-0.5-0.7-1-1.1-1.2l-0.3-0.2
							v4.7c0,1.3,1.1,2.4,2.4,2.4h5.4c0.4,0,1,0.1,1.4,0.2c0,0,0,0-0.1,0c0,0,0,0,0.1,0l0,0c2.4,0.7,4.2,2.7,4.5,5.3v0.1
							c0,0.1,0,0.3,0,0.4c0,1.4-0.5,2.8-1.3,3.8c-0.1,0.1-0.1,0.1-0.2,0.2c-0.2,0.2-0.3,0.5-0.3,0.9c0,0.9,0.7,1.5,1.5,1.5
							c0.3,0,0.5-0.1,0.8-0.2l3-1.9c0.4,0.2,0.7,0.7,0.7,1.2c0,0.3-0.1,0.7-0.3,0.9l-1.2,1.4h-1.5l0,0l0,0c-0.8,0-1.3,0.7-1.3,1.4
							h2.7l0,0h1.6c0-1.3,1.1-2.4,2.4-2.4v-4c-1.1-0.2-1.9-1.2-1.9-2.3c0-0.1,0-0.1,0-0.2c0.1,0,0.3,0,0.4,0c0.5,0,1-0.1,1.4-0.4
							C19.4,20,20,19.1,20,18V7.3c0-0.5,0.4-0.9,0.9-0.9s0.9,0.3,0.9,0.9c-0.7,0.4-1,1.2-1,2c0,1.3,1.1,2.4,2.4,2.4V7.3
							C23,7.1,23,6.9,22.9,6.7L22.9,6.7z"/>
					</g>
				</g>
			</g>
		</g>
	</g>
</g>
</svg>
