<?xml version="1.0" encoding="utf-8"?>
<!-- Generator: Adobe Illustrator 22.1.0, SVG Export Plug-In . SVG Version: 6.00 Build 0)  -->
<svg version="1.1" id="Layer_1" xmlns="http://www.w3.org/2000/svg" xmlns:xlink="http://www.w3.org/1999/xlink" x="0px" y="0px"
	 viewBox="0 0 32 32" style="enable-background:new 0 0 32 32;" xml:space="preserve">
<style type="text/css">
	.st0{filter:url(#filter-1);}
	.st1{fill:#0022E5;}
</style>
<filter  filterUnits="objectBoundingBox" height="200%" id="filter-1" width="200%" x="-50%" y="-50%">
	<feOffset  dx="0" dy="2" in="SourceAlpha" result="shadowOffsetOuter1"></feOffset>
	<feGaussianBlur  in="shadowOffsetOuter1" result="shadowBlurOuter1" stdDeviation="2"></feGaussianBlur>
	
		<feColorMatrix  in="shadowBlurOuter1" result="shadowMatrixOuter1" type="matrix" values="0 0 0 0 0   0 0 0 0 0   0 0 0 0 0  0 0 0 0.05 0">
		</feColorMatrix>
	<feMerge>
		<feMergeNode  in="shadowMatrixOuter1"></feMergeNode>
		<feMergeNode  in="SourceGraphic"></feMergeNode>
	</feMerge>
</filter>
<title>ic_onCampus</title>
<desc>Created with Sketch.</desc>
<g id="OPt-2">
	<g id="prog2_pro3_Mobile-Portrait_opt2-Copy-2" transform="translate(-93.000000, -18.000000)">
		<g id="nav">
			<g id="Group-6" class="st0">
				<g id="ic_onCampus_1_" transform="translate(96.000000, 20.000000)">
					<path id="Shape_1_" class="st1" d="M28.5,1.6v3.2h-8.1L14.8,13h4v3.2h-2.5l6,12.9h-3.6l-1.5-3.2h-14l-1.7,3.2h-3.6l6.7-12.9
						H4.2c-0.7,0-1.3-0.5-1.6-1.1L-2.5-0.2l1.5-0.6c0.8-0.3,1.8,0.2,2,1.1L5.4,13h7.1l5.6-8.1h-5.8V1.6H28.5L28.5,1.6z M8.3,16.2
						l-3.4,6.5h10.8l-3-6.5H8.3z"/>
				</g>
			</g>
		</g>
	</g>
</g>
</svg>
